<?xml version="1.0" standalone="no"?>
<!DOCTYPE svg PUBLIC "-//W3C//DTD SVG 20010904//EN"
 "http://www.w3.org/TR/2001/REC-SVG-20010904/DTD/svg10.dtd">
<svg version="1.0" xmlns="http://www.w3.org/2000/svg"
 width="700.000000pt" height="700.000000pt" viewBox="0 0 700.000000 700.000000"
 preserveAspectRatio="xMidYMid meet">
<metadata>
Created by potrace 1.14, written by Peter Selinger 2001-2017
</metadata>
<g transform="translate(0.000000,700.000000) scale(0.100000,-0.100000)"
fill="#000000" stroke="none">
<path d="M546 6990 c-38 -12 -73 -46 -99 -95 -18 -34 -22 -57 -22 -155 0 -63
1 -698 3 -1410 l3 -1295 38 106 c21 58 63 159 94 223 304 631 831 1048 1572
1241 261 68 494 98 777 99 144 1 194 4 185 12 -7 6 -394 224 -862 484 -600
334 -937 515 -1145 616 -162 78 -317 150 -345 159 -60 20 -159 28 -199 15z"/>
<path d="M4169 4969 c277 -423 458 -909 512 -1378 19 -171 7 -496 -25 -663
-68 -357 -235 -712 -476 -1011 -39 -49 -67 -86 -63 -84 5 3 501 306 1105 675
603 368 1125 684 1160 701 176 87 243 217 170 332 -48 75 -117 128 -397 309
-189 122 -522 317 -1110 648 -462 261 -853 481 -869 489 l-29 15 22 -33z"/>
<path d="M2430 4845 c-8 -2 -49 -9 -90 -15 -141 -23 -328 -91 -454 -167 -515
-309 -766 -913 -621 -1494 110 -438 441 -798 870 -946 267 -92 570 -96 841
-12 208 65 390 175 549 334 201 200 332 450 379 724 20 121 21 340 1 457 -99
574 -556 1024 -1127 1108 -90 14 -300 20 -348 11z"/>
<path d="M428 1569 c-2 -767 0 -1408 5 -1425 9 -40 44 -92 80 -118 37 -28 148
-29 227 -3 163 55 681 324 1495 777 468 260 855 478 862 484 9 8 -41 11 -185
12 -363 1 -685 56 -1027 174 -147 51 -409 178 -530 257 -417 273 -724 670
-896 1157 l-28 80 -3 -1395z"/>
</g>
</svg>
